<svg xmlns="http://www.w3.org/2000/svg" viewBox="0 0 80.04 56"><defs><style>.cls-1{fill:#6cf;}.cls-2{fill:#545454;}</style></defs><title>reset</title><g id="mod_icon"><g id="background"><path class="cls-1" d="M84.47,24.2,74.37,6.71A9.44,9.44,0,0,0,66.2,2H25.8a9.44,9.44,0,0,0-8.17,4.71L7.53,24.2A11.61,11.61,0,0,0,6,30H6a11.72,11.72,0,0,0,1.55,5.8l10.1,17.49A9.45,9.45,0,0,0,25.82,58H66.2a9.44,9.44,0,0,0,8.17-4.71L84.47,35.8a11.63,11.63,0,0,0,0-11.6Z" transform="translate(-5.98 -2)"/></g><g id="icon"><rect class="cls-2" x="42.8" y="4.88" width="6.43" height="49.81" transform="translate(28.56 -25.81) rotate(45)"/><rect class="cls-2" x="43.05" y="5.13" width="6.43" height="49.81" transform="translate(94.24 16.56) rotate(135)"/></g></g></svg>