<svg xmlns="http://www.w3.org/2000/svg" viewBox="0 0 80.04 56"><defs><style>.cls-1{fill:#ffcc21;}.cls-2{fill:#545454;}</style></defs><title>dt</title><g id="mod_icon"><g id="background"><path class="cls-1" d="M84.47,24.2,74.37,6.71A9.44,9.44,0,0,0,66.2,2H25.8a9.44,9.44,0,0,0-8.17,4.71L7.53,24.2A11.61,11.61,0,0,0,6,30H6a11.72,11.72,0,0,0,1.55,5.8l10.1,17.49A9.45,9.45,0,0,0,25.82,58H66.2a9.44,9.44,0,0,0,8.17-4.71L84.47,35.8a11.63,11.63,0,0,0,0-11.6Z" transform="translate(-5.98 -2)"/></g><g id="icon"><g id="circling_arrows" data-name="circling arrows"><path class="cls-2" d="M25,23.69l3.41,3.41A17.86,17.86,0,0,1,42.35,12.53L45.89,9,42.71,5.82A24.4,24.4,0,0,0,21.8,26.89Z" transform="translate(-5.98 -2)"/><path class="cls-2" d="M51.81,9l-3.35,3.35A17.82,17.82,0,0,1,63.56,27l2.94,2.94,3.62-3.62A24.4,24.4,0,0,0,48.54,5.73Z" transform="translate(-5.98 -2)"/><path class="cls-2" d="M40.19,51l3.35-3.35a17.82,17.82,0,0,1-15.1-14.6L25,29.61l-3.23,3.24A24.4,24.4,0,0,0,43.46,54.27Z" transform="translate(-5.98 -2)"/><path class="cls-2" d="M66.5,35.81,63.59,32.9A17.86,17.86,0,0,1,49.65,47.47L46.11,51l3.18,3.18A24.42,24.42,0,0,0,70.32,32Z" transform="translate(-5.98 -2)"/></g><g id="fast_forward" data-name="fast forward"><polygon class="cls-2" points="31.02 22 31.02 34 41.02 28 31.02 22"/><polygon class="cls-2" points="41.02 21.89 41.02 33.88 51.02 27.89 41.02 21.89"/></g></g></g></svg>