<svg xmlns="http://www.w3.org/2000/svg" viewBox="0 0 80.04 56"><defs><style>.cls-1{fill:#6cf;}.cls-2{fill:#545454;}</style></defs><title>so</title><g id="mod_icon"><g id="background"><path class="cls-1" d="M84.47,24.2,74.37,6.71A9.44,9.44,0,0,0,66.2,2H25.8a9.44,9.44,0,0,0-8.17,4.71L7.53,24.2A11.61,11.61,0,0,0,6,30H6a11.72,11.72,0,0,0,1.55,5.8l10.1,17.49A9.45,9.45,0,0,0,25.82,58H66.2a9.44,9.44,0,0,0,8.17-4.71L84.47,35.8a11.63,11.63,0,0,0,0-11.6Z" transform="translate(-5.98 -2)"/></g><g id="icon"><path class="cls-2" d="M32.55,15.36A14.61,14.61,0,0,1,47.09,28.84,12.33,12.33,0,0,0,52.25,5.93,24.88,24.88,0,0,0,24.2,18,14.52,14.52,0,0,1,32.55,15.36Z" transform="translate(-5.98 -2)"/><path class="cls-2" d="M60.59,16.55A14.6,14.6,0,0,1,47.12,31.09,12.33,12.33,0,0,0,70,36.25,24.88,24.88,0,0,0,58,8.2,14.51,14.51,0,0,1,60.59,16.55Z" transform="translate(-5.98 -2)"/><path class="cls-2" d="M31.36,43.4A14.6,14.6,0,0,1,44.84,28.87a12.32,12.32,0,0,0-22.91-5.16A24.88,24.88,0,0,0,34,51.76,14.53,14.53,0,0,1,31.36,43.4Z" transform="translate(-5.98 -2)"/><path class="cls-2" d="M59.4,44.59A14.59,14.59,0,0,1,44.87,31.12,12.32,12.32,0,0,0,39.71,54,24.88,24.88,0,0,0,67.76,42,14.52,14.52,0,0,1,59.4,44.59Z" transform="translate(-5.98 -2)"/><rect class="cls-2" x="39.98" y="27.96" width="0.04" height="0.04"/></g></g></svg>