<svg xmlns="http://www.w3.org/2000/svg" viewBox="0 0 80.04 56"><defs><style>.cls-1{fill:#a4cc00;}.cls-2{fill:#545454;}</style></defs><title>ht</title><g id="mod_icon"><g id="background"><path class="cls-1" d="M84.47,24.2,74.37,6.71A9.44,9.44,0,0,0,66.2,2H25.8a9.44,9.44,0,0,0-8.17,4.71L7.53,24.2A11.61,11.61,0,0,0,6,30H6a11.72,11.72,0,0,0,1.55,5.8l10.1,17.49A9.45,9.45,0,0,0,25.82,58H66.2a9.44,9.44,0,0,0,8.17-4.71L84.47,35.8a11.63,11.63,0,0,0,0-11.6Z" transform="translate(-5.98 -2)"/></g><g id="icon"><path id="houglass" class="cls-2" d="M54.86,10.27l2.48-.41-.72-4.3L28,10.35l.71,4.29,2.48-.41c1.52,4.28,5.43,13.75,11,16.37-4.42,4.3-5,14.52-5.07,19.06l-2.48.42.72,4.29L64,49.59l-.72-4.3-2.48.42c-1.51-4.28-5.42-13.75-11-16.38C54.2,25,54.81,14.81,54.86,10.27Zm-6,21.41c4.06,2,7.6,9.59,9.39,14.45L39.65,49.24c.11-5.17,1-13.46,4.17-16.71a2.72,2.72,0,0,0-.71-4.27c-4.06-2.05-7.6-9.59-9.39-14.45l18.63-3.12c-.11,5.18-1,13.46-4.17,16.72a2.68,2.68,0,0,0-.7,2.31h0A2.68,2.68,0,0,0,48.89,31.68Z" transform="translate(-5.98 -2)"/><path class="cls-2" d="M49,16.87l-10.86-.06s4,8.39,7,7.87S49,16.87,49,16.87Z" transform="translate(-5.98 -2)"/></g></g></svg>