<svg xmlns="http://www.w3.org/2000/svg" viewBox="0 0 80.04 56"><defs><style>.cls-1{fill:#a4cc00;}.cls-2{fill:#545454;}</style></defs><title>nf</title><g id="mod_icon"><g id="background"><path class="cls-1" d="M84.47,24.2,74.37,6.71A9.44,9.44,0,0,0,66.2,2H25.8a9.44,9.44,0,0,0-8.17,4.71L7.53,24.2A11.61,11.61,0,0,0,6,30H6a11.72,11.72,0,0,0,1.55,5.8l10.1,17.49A9.45,9.45,0,0,0,25.82,58H66.2a9.44,9.44,0,0,0,8.17-4.71L84.47,35.8a11.63,11.63,0,0,0,0-11.6Z" transform="translate(-5.98 -2)"/></g><g id="icon"><path class="cls-2" d="M46,16.25A13.75,13.75,0,1,0,59.75,30,13.76,13.76,0,0,0,46,16.25Zm0,24.5A10.75,10.75,0,1,1,56.75,30,10.75,10.75,0,0,1,46,40.75Z" transform="translate(-5.98 -2)"/><path class="cls-2" d="M46.06,4.89a25,25,0,1,0,25,25A25,25,0,0,0,46.06,4.89Zm0,46.5a21.5,21.5,0,1,1,21.5-21.5A21.5,21.5,0,0,1,46.06,51.39Z" transform="translate(-5.98 -2)"/><rect class="cls-2" x="27.98" y="11.92" width="12" height="12" transform="translate(16.64 -20.78) rotate(45)"/><rect class="cls-2" x="52.15" y="36.08" width="12" height="12" transform="translate(40.81 -30.79) rotate(45)"/><rect class="cls-2" x="52.15" y="11.92" width="12" height="12" transform="translate(105.95 -12.53) rotate(135)"/><rect class="cls-2" x="27.98" y="36.08" width="12" height="12" transform="translate(81.79 45.81) rotate(135)"/></g></g></svg>