<svg xmlns="http://www.w3.org/2000/svg" viewBox="0 0 80.04 56"><defs><style>.cls-1,.cls-2,.cls-3{fill:#ffcc21;}.cls-2,.cls-3{stroke:#545454;stroke-width:2px;}.cls-2{stroke-linecap:round;stroke-linejoin:round;}.cls-3{stroke-miterlimit:10;}</style></defs><title>hr</title><g id="mod_icon"><g id="background"><path class="cls-1" d="M84.47,24.2,74.37,6.71A9.44,9.44,0,0,0,66.2,2H25.8a9.44,9.44,0,0,0-8.17,4.71L7.53,24.2A11.61,11.61,0,0,0,6,30H6a11.72,11.72,0,0,0,1.55,5.8l10.1,17.49A9.45,9.45,0,0,0,25.82,58H66.2a9.44,9.44,0,0,0,8.17-4.71L84.47,35.8a11.63,11.63,0,0,0,0-11.6Z" transform="translate(-5.98 -2)"/></g><g id="icon"><path class="cls-2" d="M38.77,37.17V10A3.27,3.27,0,0,1,42,6.74,3.28,3.28,0,0,1,45.32,10V31H58.45V16a3.27,3.27,0,0,1,3.27-3.28A3.28,3.28,0,0,1,65,16V38.09a3.38,3.38,0,0,1-.08.72A16.17,16.17,0,0,1,32.84,40l-5.48-9.51A3.27,3.27,0,1,1,33,27.24l5.74,9.93" transform="translate(-5.98 -2)"/><rect class="cls-3" x="39.36" y="19.51" width="6.55" height="15.91" rx="3.28"/><rect class="cls-3" x="45.91" y="19.51" width="6.55" height="15.91" rx="3.28"/></g></g></svg>