<svg xmlns="http://www.w3.org/2000/svg" xmlns:xlink="http://www.w3.org/1999/xlink" viewBox="0 0 80.04 56"><defs><style>.cls-1{fill:none;}.cls-2{fill:#ffcc21;}.cls-3{clip-path:url(#clip-path);}.cls-4{fill:#545454;}</style><clipPath id="clip-path"><polygon class="cls-1" points="54.62 3.13 25.82 3.13 11.42 28.12 25.82 53.11 54.62 53.11 69.02 28.12 54.62 3.13"/></clipPath></defs><title>hd</title><g id="mod_icon"><g id="background"><path class="cls-2" d="M78.49,22.2,68.39,4.71A9.44,9.44,0,0,0,60.23,0H19.82a9.45,9.45,0,0,0-8.17,4.71L1.55,22.2A11.72,11.72,0,0,0,0,28H0a11.72,11.72,0,0,0,1.55,5.8l10.1,17.49A9.45,9.45,0,0,0,19.84,56H60.23a9.44,9.44,0,0,0,8.16-4.71L78.49,33.8a11.63,11.63,0,0,0,0-11.6Z"/></g><g id="icon"><g class="cls-3"><rect class="cls-4" x="-13.26" y="16.5" width="70.77" height="5" transform="translate(-5.39 28.67) rotate(-60)"/><rect class="cls-4" x="-4.29" y="20.95" width="70.69" height="4.99" transform="translate(-4.78 38.62) rotate(-60)"/><rect class="cls-4" x="4.68" y="25.4" width="70.62" height="4.99" transform="translate(-4.17 48.58) rotate(-60)"/><rect class="cls-4" x="13.65" y="29.85" width="70.55" height="4.98" transform="translate(-3.55 58.54) rotate(-60)"/><rect class="cls-4" x="22.62" y="34.31" width="70.47" height="4.98" transform="translate(-2.94 68.5) rotate(-60)"/></g></g></g></svg>