<svg xmlns="http://www.w3.org/2000/svg" viewBox="0 0 80.04 56"><defs><style>.cls-1{fill:#ffcc21;}.cls-2{fill:#545454;}</style></defs><title>fl</title><g id="mod_icon"><g id="background"><path class="cls-1" d="M84.47,24.2,74.37,6.71A9.44,9.44,0,0,0,66.2,2H25.8a9.44,9.44,0,0,0-8.17,4.71L7.53,24.2A11.61,11.61,0,0,0,6,30H6a11.72,11.72,0,0,0,1.55,5.8l10.1,17.49A9.45,9.45,0,0,0,25.82,58H66.2a9.44,9.44,0,0,0,8.17-4.71L84.47,35.8a11.63,11.63,0,0,0,0-11.6Z" transform="translate(-5.98 -2)"/></g><g id="icon"><g id="flashlight"><path class="cls-2" d="M17,23H30.53a0,0,0,0,1,0,0v9a0,0,0,0,1,0,0H17a2,2,0,0,1-2-2V25A2,2,0,0,1,17,23Z"/><polygon class="cls-2" points="19.84 27.75 35.87 37 35.87 18.49 19.84 27.75"/><circle class="cls-2" cx="35.87" cy="27.5" r="2.5"/></g><g id="rays"><rect class="cls-2" x="42.53" y="42.35" width="24.94" height="2.49" rx="1.24" transform="translate(16.51 -20.6) rotate(24)"/><rect class="cls-2" x="42.93" y="15.31" width="21.72" height="2.49" rx="1.24" transform="translate(-7.93 22.28) rotate(-25)"/></g></g></g></svg>