<svg xmlns="http://www.w3.org/2000/svg" xmlns:xlink="http://www.w3.org/1999/xlink" viewBox="0 0 80.04 56"><defs><style>.cls-1,.cls-3{fill:none;}.cls-2{fill:#a4cc00;}.cls-3{stroke:#545454;stroke-linejoin:round;stroke-width:2px;}.cls-4{fill:#545454;}.cls-5{clip-path:url(#clip-path);}</style><clipPath id="clip-path" transform="translate(-5.98 -2)"><rect class="cls-1" x="31.51" y="17.09" width="32.74" height="24.96" rx="7.63" transform="translate(-8.39 29.38) rotate(-31.5)"/></clipPath></defs><title>ez</title><g id="mod_icon"><g id="background"><path class="cls-2" d="M84.47,24.2,74.37,6.71A9.44,9.44,0,0,0,66.2,2H25.8a9.44,9.44,0,0,0-8.17,4.71L7.53,24.2A11.61,11.61,0,0,0,6,30H6a11.72,11.72,0,0,0,1.55,5.8l10.1,17.49A9.45,9.45,0,0,0,25.82,58H66.2a9.44,9.44,0,0,0,8.17-4.71L84.47,35.8a11.63,11.63,0,0,0,0-11.6Z" transform="translate(-5.98 -2)"/></g><g id="icon"><g id="wings"><path id="left" class="cls-3" d="M32.83,34.9a22.38,22.38,0,0,0-6.95-.19c-3.11.55-6.1,5.46-6.1,5.46H23l.14,4.56,4.49-2.24L28,50.35s6-10.19,8.32-10.11" transform="translate(-5.98 -2)"/><path class="cls-3" d="M60.12,19.86c.22-1.67,1-8.12,3.33-9.6a3.06,3.06,0,0,1,4.61,1.19c.58,1.14-1.82,3.8-1.51,4.17s4.23-.63,4.39.13-1.89,2.49-1.57,3.38,5.1,6.61,4.84,7.29-4-1.84-5.53-2.3a11.23,11.23,0,0,0-6.09-.23" transform="translate(-5.98 -2)"/></g><g id="center"><path class="cls-4" d="M52.78,15.24h0a5.6,5.6,0,0,1,4.82,2.68l5.07,8.28a5.62,5.62,0,0,1-1.86,7.73L45.9,43.07a5.65,5.65,0,0,1-7.74-1.86l-5.07-8.27A5.66,5.66,0,0,1,35,25.2l14.91-9.14a5.67,5.67,0,0,1,2.92-.82m0-2a7.53,7.53,0,0,0-4,1.12L33.91,23.5A7.65,7.65,0,0,0,31.39,34l5.07,8.27A7.67,7.67,0,0,0,47,44.78l14.91-9.14a7.66,7.66,0,0,0,2.52-10.49l-5.07-8.27a7.67,7.67,0,0,0-6.53-3.64Z" transform="translate(-5.98 -2)"/><g class="cls-5"><rect class="cls-4" x="24.05" y="25.83" width="32.84" height="9.96" transform="translate(-1.96 64.28) rotate(-81.5)"/><rect class="cls-4" x="38.31" y="24.26" width="32.84" height="9.96" transform="translate(11.74 77.05) rotate(-81.5)"/></g></g></g></g></svg>