<svg id="icon" xmlns="http://www.w3.org/2000/svg" viewBox="0 0 100 100"><defs><style>.cls-1{fill:#fff;}</style></defs><title>options</title><path class="cls-1" d="M98,43H88.36a38.9,38.9,0,0,0-6.28-15.18L88.89,21a2,2,0,0,0,0-2.83l-7.07-7.07a2,2,0,0,0-2.83,0l-6.81,6.81A38.9,38.9,0,0,0,57,11.64V2a2,2,0,0,0-2-2H45a2,2,0,0,0-2,2v9.64a38.9,38.9,0,0,0-15.18,6.28L21,11.11a2,2,0,0,0-2.83,0l-7.07,7.07a2,2,0,0,0,0,2.83l6.81,6.81A38.9,38.9,0,0,0,11.64,43H2a2,2,0,0,0-2,2V55a2,2,0,0,0,2,2h9.64a38.9,38.9,0,0,0,6.28,15.18L11.11,79a2,2,0,0,0,0,2.83l7.07,7.07a2,2,0,0,0,2.83,0l6.81-6.81A38.9,38.9,0,0,0,43,88.36V98a2,2,0,0,0,2,2H55a2,2,0,0,0,2-2V88.36a38.9,38.9,0,0,0,15.18-6.28L79,88.89a2,2,0,0,0,2.83,0l7.07-7.07a2,2,0,0,0,0-2.83l-6.81-6.81A38.9,38.9,0,0,0,88.36,57H98a2,2,0,0,0,2-2V45A2,2,0,0,0,98,43ZM73.63,63.73A27.35,27.35,0,0,1,57,76.42c-.55.15-1.11.28-1.67.39l-.11,0q-.73.14-1.47.24l-.41.05-1.24.13-.45,0c-.55,0-1.1,0-1.65,0s-1.1,0-1.65,0l-.45,0-1.24-.13-.41-.05q-.73-.1-1.47-.24l-.11,0c-.56-.11-1.12-.24-1.67-.39A27.35,27.35,0,0,1,26.37,63.73h0A27.15,27.15,0,0,1,23.58,57c-.15-.55-.28-1.11-.39-1.67,0,0,0-.08,0-.11q-.14-.73-.24-1.47c0-.14,0-.28-.05-.41-.05-.41-.09-.83-.13-1.24l0-.45c0-.55,0-1.1,0-1.65s0-1.1,0-1.65l0-.45c0-.41.08-.83.13-1.24,0-.13,0-.27.05-.41q.11-.73.24-1.47s0-.07,0-.11c.11-.56.24-1.12.39-1.67a27.15,27.15,0,0,1,2.79-6.73h0A27.35,27.35,0,0,1,43,23.58c.55-.15,1.11-.28,1.67-.39l.11,0q.73-.14,1.47-.24l.41-.05,1.24-.13.45,0c.55,0,1.1,0,1.65,0s1.1,0,1.65,0l.45,0,1.24.13.41.05q.73.11,1.47.24l.11,0c.56.11,1.12.24,1.67.39A27.35,27.35,0,0,1,73.63,36.27h0A27.15,27.15,0,0,1,76.42,43c.15.55.28,1.11.39,1.67,0,0,0,.08,0,.11q.14.73.24,1.47c0,.14,0,.28.05.41,0,.41.09.83.13,1.24l0,.45c0,.55,0,1.1,0,1.65s0,1.1,0,1.65l0,.45c0,.41-.08.83-.13,1.24,0,.13,0,.27-.05.41q-.1.73-.24,1.47s0,.07,0,.11c-.11.56-.24,1.12-.39,1.67a27.15,27.15,0,0,1-2.79,6.73Z"/></svg>